<svg xmlns="http://www.w3.org/2000/svg" width="26" height="24" viewBox="0 0 26 24">
  <defs>
    <style>
      .cls-1 {
        fill: #c7cdd9;
        fill-rule: evenodd;
      }
    </style>
  </defs>
  <path id="Ask" class="cls-1" d="M3.4,0.185H22.6c2.651,0,2.4-.247,2.4,2.363v18.9c0,2.61.251,2.363-2.4,2.363H3.4c-2.651,0-2.4.247-2.4-2.363V2.548C1-.062.749,0.185,3.4,0.185Zm-1.387.807H23.988V22.978H2.012V0.991ZM13.85,16.964v1.992H12.091V16.964H13.85ZM9.564,8.444a4.345,4.345,0,0,1,.764-1.41,3.125,3.125,0,0,1,1.13-.878,3.98,3.98,0,0,1,1.59-.306,4.527,4.527,0,0,1,1.477.192,3.977,3.977,0,0,1,1.223.794,3.159,3.159,0,0,1,.772,1.1,3.67,3.67,0,0,1,.234,1.444,3.111,3.111,0,0,1-.234.943,3.249,3.249,0,0,1-.168.756,3.422,3.422,0,0,1-.37.628c-0.179.193-.435,0.38-0.619,0.561s-0.447.343-.625,0.518a3.369,3.369,0,0,0-.317.561,2.7,2.7,0,0,0-.346.646,2.756,2.756,0,0,0-.129.872v0.663H12.2V14.645a3.32,3.32,0,0,1,.288-1.231,3.679,3.679,0,0,1,.553-0.875c0.216-.251,1.139-1.147,1.362-1.4a2.265,2.265,0,0,0,.786-1.894,2.107,2.107,0,0,0-.484-1.461,2.518,2.518,0,0,0-1.661-.523,1.785,1.785,0,0,0-.921.2,2.027,2.027,0,0,0-.689.611A2.373,2.373,0,0,0,11,8.954,3.556,3.556,0,0,0,10.86,9.97H9.351A4,4,0,0,1,9.564,8.444Z"/>
</svg>
