<svg xmlns="http://www.w3.org/2000/svg" width="26" height="22" viewBox="0 0 26 22">
  <defs>
    <style>
      .cls-1 {
        fill: #fff;
        fill-rule: evenodd;
      }
    </style>
  </defs>
  <path id="Chat" class="cls-1" d="M25,19s-2.7.01-5.014,0.01c0.01,0.959.008,2.472-.013,2.61a0.734,0.734,0,0,1-.959.291A11.151,11.151,0,0,1,16.938,19H12c-0.827,0-.985-0.321-0.985-1.153V16.984c0.242,0.009,1.033.028,1.033,0.028l-0.034.977L17.937,18,19,20V18.006h6V9.019H18.98V8.035H24.5A1.245,1.245,0,0,1,26,9.2v8.654C26,18.683,25.827,19,25,19ZM11.015,16.979H9.406c-0.692.61-1.972,1.731-2.668,2.308A0.7,0.7,0,0,1,5.81,19c-0.021-.138-0.024-1.058-0.013-2.017H1.125A0.942,0.942,0,0,1,0,15.847V1.1C0,0.267.142,0,.969,0H17.952c0.827,0,1.029.238,1.029,1.069V15.223a1.817,1.817,0,0,1-1.591,1.756H11.015v0.006C10.932,16.981,10.912,16.979,11.015,16.979Zm6.94-1L17.99,1.026,1,1.035V15.979H6.948L6.96,17.94l2.02-1.961h8.976Zm-13.3-4.4V11.54a0.54,0.54,0,0,1,.511-0.545h9.065a0.557,0.557,0,0,1,.511.563v0.026a0.456,0.456,0,0,1-.511.443H5.168A0.456,0.456,0,0,1,4.657,11.583Zm7.33-5.55H5.168A0.456,0.456,0,0,1,4.657,5.59V5.546A0.54,0.54,0,0,1,5.168,5h6.819a0.557,0.557,0,0,1,.511.563V5.59A0.456,0.456,0,0,1,11.987,6.033ZM5.168,8.013H9.741a0.528,0.528,0,0,1,.511.532V8.571a0.456,0.456,0,0,1-.511.443H5.168a0.456,0.456,0,0,1-.511-0.443V8.527A0.513,0.513,0,0,1,5.168,8.013Z"/>
</svg>
