<svg xmlns="http://www.w3.org/2000/svg" width="21" height="24" viewBox="0 0 21 24">
  <defs>
    <style>
      .cls-1 {
        fill: #c7cdd9;
        fill-rule: evenodd;
      }
    </style>
  </defs>
  <path id="Companies" class="cls-1" d="M9.5,24h-8A1.5,1.5,0,0,1,0,22.5V1.5A1.5,1.5,0,0,1,1.5,0h8A1.5,1.5,0,0,1,11,1.5v21A1.5,1.5,0,0,1,9.5,24ZM1.5,1a0.5,0.5,0,0,0-.5.5v21a0.5,0.5,0,0,0,.5.5h8a0.5,0.5,0,0,0,.5-0.5V1.5A0.5,0.5,0,0,0,9.5,1h-8ZM7,7H4V4H7V7Zm0,6.5H4v-3H7v3ZM7,20H4V17H7v3Zm12.5,4h-8A1.5,1.5,0,0,1,10,22.5V7.5A1.5,1.5,0,0,1,11.5,6h8A1.5,1.5,0,0,1,21,7.5v15A1.5,1.5,0,0,1,19.5,24Zm-8-17a0.5,0.5,0,0,0-.5.5v15a0.5,0.5,0,0,0,.5.5h8a0.5,0.5,0,0,0,.5-0.5V7.5A0.5,0.5,0,0,0,19.5,7h-8ZM17,13.5H14v-3h3v3ZM17,20H14V17h3v3ZM9.624,23.419H11.5V24H9.624V23.419Zm1-16.829H12V6H10.623V6.59Z"/>
</svg>
