<svg xmlns="http://www.w3.org/2000/svg" width="24" height="23" viewBox="0 0 24 23">
  <defs>
    <style>
      .cls-1 {
        fill: #c7cdd9;
        fill-rule: evenodd;
      }
    </style>
  </defs>
  <path id="Feed" class="cls-1" d="M19.567,12.7a0.606,0.606,0,0,0-.581.708v8.572H15V17.628a0.693,0.693,0,0,0-.669-0.694H9.678a0.708,0.708,0,0,0-.707.694v4.351H4.976V13.324c0-.373,0-0.617-0.394-0.617a0.574,0.574,0,0,0-.6.617v8.994A0.681,0.681,0,0,0,4.647,23h4.7a0.681,0.681,0,0,0,.669-0.683v-4.2H14v4.2A0.686,0.686,0,0,0,14.7,23H19.33A0.681,0.681,0,0,0,20,22.318v-8.91C20,13.007,19.933,12.7,19.567,12.7Zm4.311-.853L18.01,5.993V1.8c0-.4-0.109-0.573-0.5-0.573a0.5,0.5,0,0,0-.532.594V4.795L12.5,0.216A0.658,0.658,0,0,0,12.034,0a0.681,0.681,0,0,0-.492.219L0.19,11.77c-0.272.277,0.164,0.549,0.455,0.8,0.252,0.3.814-.28,1.086-0.557L12,1.048,22.686,12.365a0.862,0.862,0,0,0,.542.282,0.353,0.353,0,0,0,.343-0.046C23.824,12.344,24.149,12.126,23.878,11.847Z"/>
</svg>
