<svg xmlns="http://www.w3.org/2000/svg" width="24" height="24" viewBox="0 0 24 24">
  <defs>
    <style>
      .cls-1 {
        fill: #fff;
        fill-rule: evenodd;
      }
    </style>
  </defs>
  <path id="Notifications" class="cls-1" d="M23.924,20.677a0.7,0.7,0,0,1-.642.375H0.738A0.7,0.7,0,0,1,.1,20.677,1.288,1.288,0,0,1,0,20.183a0.706,0.706,0,0,1,.144-0.4,16.353,16.353,0,0,0,2.108-4.369A31.856,31.856,0,0,0,4,9c0.222-1.694.469-3.386,1.241-4.3A7.417,7.417,0,0,1,6.577,3.455,8.252,8.252,0,0,1,9.339,2.124,2.594,2.594,0,0,1,10.282.612,2.671,2.671,0,0,1,12,0a2.7,2.7,0,0,1,1.728.608,2.573,2.573,0,0,1,.955,1.512A8.24,8.24,0,0,1,17.43,3.455,7.39,7.39,0,0,1,18.765,4.7a8.011,8.011,0,0,1,1.7,4.047,42.557,42.557,0,0,0,1.283,6.67,17.088,17.088,0,0,0,2.121,4.527,0.666,0.666,0,0,1,.131.388A0.846,0.846,0,0,1,23.924,20.677ZM20.166,15.09a52.52,52.52,0,0,1-1.152-6.166,6.671,6.671,0,0,0-1.44-3.413A6.027,6.027,0,0,0,16.409,4.49a7.232,7.232,0,0,0-2.566-1.1,0.716,0.716,0,0,1-.563-0.685V2.68A1.256,1.256,0,0,0,12,1.439,1.271,1.271,0,0,0,10.714,2.68V2.706a0.691,0.691,0,0,1-.537.685A7.32,7.32,0,0,0,7.6,4.49,6.022,6.022,0,0,0,4.993,8.924,57.251,57.251,0,0,1,3.841,15.1,21.26,21.26,0,0,1,2,20H22A21.851,21.851,0,0,1,20.166,15.09Zm-6.658,8.285a2.015,2.015,0,0,1-1.5.631,2.074,2.074,0,0,1-1.516-.631,2.011,2.011,0,0,1-.626-1.483h4.269A2.05,2.05,0,0,1,13.509,23.375Z"/>
</svg>
