<svg xmlns="http://www.w3.org/2000/svg" width="19" height="24" viewBox="0 0 19 24">
  <defs>
    <style>
      .cls-1 {
        fill: #c7cdd9;
        fill-rule: evenodd;
      }
    </style>
  </defs>
  <path id="Services" class="cls-1" d="M17.5,24H1.5A1.5,1.5,0,0,1,0,22.5V1.5A1.5,1.5,0,0,1,1.5,0h16A1.5,1.5,0,0,1,19,1.5v21A1.5,1.5,0,0,1,17.5,24ZM1.5,1a0.5,0.5,0,0,0-.5.5v21a0.5,0.5,0,0,0,.5.5h16a0.5,0.5,0,0,0,.5-0.5V1.5A0.5,0.5,0,0,0,17.5,1H1.5ZM16,9H3V7H16V9Zm0-4H7V3h9V5Zm0,16H3V19H16v2Zm0-4H3V15H16v2Zm0-4H3V11H16v2Z"/>
</svg>
