<svg xmlns="http://www.w3.org/2000/svg" width="75" height="75" viewBox="0 0 75 75">
  <defs>
    <style>
      .cls-1 {
        fill: #65aacd;
        fill-rule: evenodd;
      }
    </style>
  </defs>
  <path class="cls-1" d="M36.031,12.953V16.5a8.3,8.3,0,0,1-5.957-4.93,27.056,27.056,0,0,1,3.432-.758A4.842,4.842,0,0,0,36.031,12.953ZM39.455,16.5V12.953a4.8,4.8,0,0,0,2.508-2.146,25.8,25.8,0,0,1,3.441.775A8.3,8.3,0,0,1,39.455,16.5ZM64.473,41.752a26.056,26.056,0,0,1-.77,3.372A8.29,8.29,0,0,1,58.4,39.147h3.569A4.8,4.8,0,0,0,64.473,41.752Zm-6.12-6.012a8.288,8.288,0,0,1,5.3-6.139,24.367,24.367,0,0,1,.8,3.364,4.764,4.764,0,0,0-2.542,2.776H58.353Zm-45,3.406H17a8.3,8.3,0,0,1-5.35,5.688,24.617,24.617,0,0,1-.727-3.372A4.829,4.829,0,0,0,13.358,39.147Zm3.826-3.406H13.675a4.759,4.759,0,0,0-2.628-3.091,25.51,25.51,0,0,1,.839-3.346A8.277,8.277,0,0,1,17.184,35.741ZM36.031,16.5l0.026,19.245H17.184a8.277,8.277,0,0,0-5.3-6.438A27.127,27.127,0,0,1,30.074,11.565,8.3,8.3,0,0,0,36.031,16.5Zm3.475,41.393a8.289,8.289,0,0,1,6.06,5.356,26.07,26.07,0,0,1-3.364.784,4.819,4.819,0,0,0-2.7-2.58V57.889ZM39.481,39.147H58.4A8.29,8.29,0,0,0,63.7,45.124,27.133,27.133,0,0,1,45.566,63.245a8.289,8.289,0,0,0-6.06-5.356Zm-3.424,0,0.026,18.725a8.3,8.3,0,0,0-6.18,5.39A27.153,27.153,0,0,1,11.655,44.835,8.3,8.3,0,0,0,17,39.147H36.057Zm3.4-22.651A8.3,8.3,0,0,0,45.4,11.583,27.113,27.113,0,0,1,63.652,29.6a8.288,8.288,0,0,0-5.3,6.139H39.481ZM36.083,57.872v3.534a4.819,4.819,0,0,0-2.807,2.631,27.67,27.67,0,0,1-3.372-.775A8.3,8.3,0,0,1,36.083,57.872ZM67.229,29.141a8.245,8.245,0,0,1,.043,16.426,30.152,30.152,0,0,0,.77-3.636,4.822,4.822,0,0,0-.026-9.162A30.012,30.012,0,0,0,67.229,29.141Zm0,0a30.012,30.012,0,0,1,.787,3.628,4.548,4.548,0,0,0-1.532-.256,4.787,4.787,0,0,0-2.037.451,24.367,24.367,0,0,0-.8-3.364,8.461,8.461,0,0,1,2.833-.494A7.25,7.25,0,0,1,67.229,29.141Zm0.813,12.79a30.152,30.152,0,0,1-.77,3.636c-0.257.026-.522,0.034-0.788,0.034a8.367,8.367,0,0,1-2.782-.477,26.056,26.056,0,0,0,.77-3.372A4.762,4.762,0,0,0,68.042,41.931Zm-0.813-12.79a7.25,7.25,0,0,0-.745-0.034,8.461,8.461,0,0,0-2.833.494A27.113,27.113,0,0,0,45.4,11.583a8.215,8.215,0,0,0,.625-3.151c0-.119,0-0.238-0.008-0.358A30.73,30.73,0,0,1,67.229,29.141ZM66.485,45.6c0.265,0,.531-0.008.788-0.034A30.735,30.735,0,0,1,45.986,66.813c0.026-.281.043-0.57,0.043-0.86a8.144,8.144,0,0,0-.462-2.708A27.133,27.133,0,0,0,63.7,45.124,8.367,8.367,0,0,0,66.485,45.6ZM46.02,8.074c0.008,0.119.008,0.239,0.008,0.358a8.215,8.215,0,0,1-.625,3.151,25.8,25.8,0,0,0-3.441-.775A4.681,4.681,0,0,0,42.6,8.432a4.088,4.088,0,0,0-.146-1.124A30.713,30.713,0,0,1,46.02,8.074Zm0.008,57.879c0,0.29-.017.579-0.043,0.86a31.016,31.016,0,0,1-3.68.783,4.554,4.554,0,0,0,.3-1.643,4.815,4.815,0,0,0-.4-1.924,26.07,26.07,0,0,0,3.364-.784A8.144,8.144,0,0,1,46.028,65.953ZM37.743,0.18A8.277,8.277,0,0,1,46.02,8.074a30.713,30.713,0,0,0-3.561-.766A4.856,4.856,0,0,0,33.019,7.3a31.106,31.106,0,0,0-3.561.766A8.284,8.284,0,0,1,37.743.18Zm8.242,66.633a8.3,8.3,0,0,1-16.493.008,31.014,31.014,0,0,0,3.681.784,4.864,4.864,0,0,0,9.133-.008A31.016,31.016,0,0,0,45.986,66.813ZM33.019,7.3a4.154,4.154,0,0,0-.146,1.133,4.762,4.762,0,0,0,.633,2.376,27.056,27.056,0,0,0-3.432.758,8.125,8.125,0,0,1-.625-3.134c0-.119,0-0.247.008-0.366A31.106,31.106,0,0,1,33.019,7.3Zm0.257,56.738a4.773,4.773,0,0,0-.4,1.916,4.6,4.6,0,0,0,.3,1.652,31.014,31.014,0,0,1-3.681-.784c-0.026-.289-0.043-0.579-0.043-0.868a8.222,8.222,0,0,1,.454-2.691A27.67,27.67,0,0,0,33.275,64.037ZM29.449,8.432a8.125,8.125,0,0,0,.625,3.134A27.127,27.127,0,0,0,11.886,29.3a8.178,8.178,0,0,0-2.893-.52c-0.231,0-.462.009-0.685,0.026A30.682,30.682,0,0,1,29.458,8.066C29.449,8.185,29.449,8.313,29.449,8.432ZM29.9,63.262a8.222,8.222,0,0,0-.454,2.691c0,0.29.017,0.579,0.043,0.868a30.714,30.714,0,0,1-21.423-21.6,8.171,8.171,0,0,0,.924.051,8.342,8.342,0,0,0,2.662-.434A27.153,27.153,0,0,0,29.9,63.262ZM11.886,29.3a25.51,25.51,0,0,0-.839,3.346,4.745,4.745,0,0,0-2.054-.46,4.544,4.544,0,0,0-1.524.255,29.924,29.924,0,0,1,.839-3.636c0.223-.017.454-0.026,0.685-0.026A8.178,8.178,0,0,1,11.886,29.3Zm-0.959,12.16a24.617,24.617,0,0,0,.727,3.372,8.342,8.342,0,0,1-2.662.434,8.171,8.171,0,0,1-.924-0.051,30.333,30.333,0,0,1-.728-3.653,4.621,4.621,0,0,0,1.652.3A4.878,4.878,0,0,0,10.928,41.463ZM8.308,28.809a29.924,29.924,0,0,0-.839,3.636,4.813,4.813,0,0,0-.128,9.12,30.333,30.333,0,0,0,.728,3.653A8.24,8.24,0,0,1,8.308,28.809Z"/>
</svg>
