<svg xmlns="http://www.w3.org/2000/svg" width="73" height="73" viewBox="0 0 73 73">
  <defs>
    <style>
      .cls-1 {
        fill: #65aacd;
        fill-rule: evenodd;
      }
    </style>
  </defs>
  <path id="Shape_71_копия" data-name="Shape 71 копия" class="cls-1" d="M54.4,4.979A35.91,35.91,0,0,1,69.16,21.5a1.708,1.708,0,0,1-.35,1.893,1.584,1.584,0,0,1-.428.308l-1.575.814A32.479,32.479,0,0,0,59.4,13.078a32.111,32.111,0,0,0-8.159-5.934C51.11,7.078,51,7.018,50.887,6.963a31.578,31.578,0,0,0-3.156-1.369l0.99-1.677a1.7,1.7,0,0,1,2.07-.73c0.1,0.036.585,0.223,1.352,0.591C52.745,4.069,53.512,4.461,54.4,4.979Zm-2.263-1.2c-0.766-.368-1.255-0.555-1.352-0.591a1.7,1.7,0,0,0-2.07.73l-0.99,1.677a32.785,32.785,0,0,0-22.792.03L23.93,3.918a1.691,1.691,0,0,0-2-.754A36.164,36.164,0,0,1,52.142,3.779ZM21.933,3.164a1.691,1.691,0,0,1,2,.754l1.008,1.707A30.346,30.346,0,0,0,21.788,7l-0.018-.03a32.973,32.973,0,0,0-8.454,6.121A31.811,31.811,0,0,0,7.3,21.419l0.006,0.006a31.913,31.913,0,0,0-1.37,3.13L4.27,23.7a1.7,1.7,0,0,1-.809-2.111c0.1-.217.187-0.428,0.284-0.645A35.973,35.973,0,0,1,21.933,3.164ZM47.869,66.522a32.5,32.5,0,0,0,19-19.045l1.6,0.947a1.7,1.7,0,0,1,.736,2.063,34.047,34.047,0,0,1-7.5,10.958A35.3,35.3,0,0,1,50.875,68.85a1.711,1.711,0,0,1-2.2-.778ZM4.185,48.424a1.71,1.71,0,0,0-.73,2.068c0.036,0.1.223,0.585,0.591,1.351a36.07,36.07,0,0,1-.585-30.256A1.7,1.7,0,0,0,4.27,23.7l1.666,0.856a32.7,32.7,0,0,0-.072,22.88Zm1.678-.989A32.555,32.555,0,0,0,24.793,66.5l-0.815,1.574a1.548,1.548,0,0,1-.308.428,1.711,1.711,0,0,1-1.895.35A35.914,35.914,0,0,1,5.247,54.1c-0.519-.892-0.911-1.658-1.2-2.261-0.368-.766-0.555-1.255-0.591-1.351a1.71,1.71,0,0,1,.73-2.068ZM61.809,61.5a36.025,36.025,0,0,1-50.871,0,35.613,35.613,0,0,1-5.691-7.4A35.914,35.914,0,0,0,21.776,68.85a1.711,1.711,0,0,0,1.895-.35,1.548,1.548,0,0,0,.308-0.428L24.793,66.5a32.768,32.768,0,0,0,23.076.024l0.8,1.55a1.711,1.711,0,0,0,2.2.778A35.3,35.3,0,0,0,61.7,61.444a34.047,34.047,0,0,0,7.5-10.958,1.7,1.7,0,0,0-.736-2.062l-1.6-.947a32.705,32.705,0,0,0-.06-22.965l1.575-.814a1.584,1.584,0,0,0,.428-0.308,1.708,1.708,0,0,0,.35-1.893A35.91,35.91,0,0,0,54.4,4.979,35.941,35.941,0,0,1,61.809,61.5ZM10.586,13.414l2.828-2.828,48,48-2.828,2.828ZM52.33,27.846a0.835,0.835,0,0,1,1.671,0,10.18,10.18,0,0,1-10.175,10.16,0.834,0.834,0,1,1,0-1.668A8.506,8.506,0,0,0,52.33,27.846Zm-6.339,13.9L43.146,38.9A10.577,10.577,0,1,0,34.1,29.854L30.8,26.561A13.646,13.646,0,1,1,45.991,41.748ZM31.3,36.911L35.6,41.338,21.229,55.186a3.02,3.02,0,0,1-4.216-.1L16.831,54.9a2.9,2.9,0,0,1,.1-4.142Z"/>
</svg>
