<svg xmlns="http://www.w3.org/2000/svg" width="73" height="73" viewBox="0 0 73 73">
  <defs>
    <style>
      .cls-1 {
        fill: #65aacd;
        fill-rule: evenodd;
      }
    </style>
  </defs>
  <path class="cls-1" d="M18.23,36.486a18.939,18.939,0,1,1,18.943,18.93A18.949,18.949,0,0,1,18.23,36.486Zm24.307-5.658,0.979-3.811a12.134,12.134,0,0,0-4.9-1.115V22.933h-3.3v3.2c-3.619.715-5.713,3.037-5.713,6.015,0,3.267,2.469,4.96,6.079,6.177,2.5,0.842,3.584,1.651,3.584,2.935,0,1.344-1.32,2.093-3.244,2.093A11.981,11.981,0,0,1,30.4,41.863l-1.013,3.947a13.54,13.54,0,0,0,5.747,1.455v3.207H38.45V47.027c3.882-.672,6.011-3.242,6.011-6.245,0-3.037-1.626-4.892-5.645-6.313-2.869-1.081-4.053-1.787-4.053-2.9,0-.944.707-1.889,2.9-1.889A11.212,11.212,0,0,1,42.537,30.829Zm16.977,5.658a22.345,22.345,0,1,0-22.34,22.333A22.356,22.356,0,0,0,59.513,36.486ZM7.86,4.285H65.5a3.534,3.534,0,0,1,3.533,3.531v57.6A3.534,3.534,0,0,1,65.5,68.943H7.86a3.534,3.534,0,0,1-3.533-3.531V7.815A3.534,3.534,0,0,1,7.86,4.285Zm0-3.4H65.5a6.948,6.948,0,0,1,6.939,6.934v57.6A6.949,6.949,0,0,1,65.5,72.346H7.86A6.948,6.948,0,0,1,.921,65.412V7.815A6.948,6.948,0,0,1,7.86.881ZM65.5,4.285H7.86A3.534,3.534,0,0,0,4.326,7.815v57.6A3.534,3.534,0,0,0,7.86,68.943H65.5a3.534,3.534,0,0,0,3.533-3.531V7.815A3.534,3.534,0,0,0,65.5,4.285Z"/>
</svg>
