<svg xmlns="http://www.w3.org/2000/svg" width="69" height="69" viewBox="0 0 69 69">
  <defs>
    <style>
      .cls-1 {
        fill: #65aacd;
        fill-rule: evenodd;
      }
    </style>
  </defs>
  <path class="cls-1" d="M68.721,9.091V60.137a8.514,8.514,0,0,1-8.514,8.508H9.124A8.514,8.514,0,0,1,.61,60.137V9.091A8.514,8.514,0,0,1,9.124.583H60.207A8.514,8.514,0,0,1,68.721,9.091ZM61.058,21A2.55,2.55,0,0,0,58.5,18.449H43.179a2.552,2.552,0,1,0,0,5.1H58.5A2.55,2.55,0,0,0,61.058,21Zm-3,26.612a2.576,2.576,0,1,0-3.644-3.641L43.469,54.9a2.576,2.576,0,0,0,0,3.641,2.581,2.581,0,0,0,3.652,0ZM28.706,21a2.55,2.55,0,0,0-2.554-2.552H21.043v-5.1a2.554,2.554,0,0,0-5.108,0v5.1H10.826a2.552,2.552,0,1,0,0,5.1h5.108v5.1a2.554,2.554,0,0,0,5.108,0v-5.1h5.108A2.55,2.55,0,0,0,28.706,21ZM25.87,47.614a2.579,2.579,0,1,0-3.652-3.641l-3.644,3.641L14.93,43.972a2.579,2.579,0,0,0-3.652,3.641l3.653,3.65L11.278,54.9a2.576,2.576,0,0,0,0,3.641,2.581,2.581,0,0,0,3.653,0L18.574,54.9l3.644,3.641A2.579,2.579,0,1,0,25.87,54.9l-3.644-3.641Z"/>
</svg>
